# xmcd
#
# Track frame offsets:
#	150
#	49820
#	125195
#	170970
#	211140
#	236884
#
# Disc length: 4487 seconds
#
# Revision: 3
# Processed by: cddbd v1.5.2PL0 Copyright (c) Steve Scherf et al.
# Submitted via: audiograbber 1.83.01
#
DISCID=5d118506
DTITLE=Tangerine Dream - In Search Of Hades [CD 06)
DYEAR=2019
DGENRE=Electronic
TTITLE0=Oedipus Tyrannus Overture
TTITLE1=Oedipus Tyrannus Act 1
TTITLE2=Oedipus Tyrannus Act 2: Battle
TTITLE3=Oedipus Tyrannus Act 2: Baroque
TTITLE4=Oedipus Tyrannus Act 2: Zeus
TTITLE5=Oedipus Tyrannus Act 3
EXTD=
EXTT0=
EXTT1=
EXTT2=
EXTT3=
EXTT4=
EXTT5=
PLAYORDER=
